<svg width="18" height="20" viewBox="0 0 18 20" fill="none" xmlns="http://www.w3.org/2000/svg">
<path d="M9 0.901184C4.0295 0.901184 0 5.13773 0 10.3636C0 15.5895 4.0295 19.8261 9 19.8261C13.9705 19.8261 18 15.5895 18 10.3636C18 5.13773 13.9705 0.901184 9 0.901184ZM1.025 10.8893H3.0165C3.0625 12.2067 3.2775 13.45 3.631 14.5692H2.079C1.4755 13.4741 1.104 12.2251 1.025 10.8893ZM9.5 5.10672V1.99515C10.8735 2.22435 12.081 3.39086 12.8995 5.10672H9.5ZM13.3255 6.1581C13.7025 7.25312 13.935 8.50268 13.984 9.83794H9.5V6.1581H13.3255ZM8.5 1.99515V5.10672H5.1005C5.9185 3.39086 7.1265 2.22435 8.5 1.99515ZM8.5 6.1581V9.83794H4.016C4.065 8.50268 4.2975 7.25312 4.6745 6.1581H8.5ZM3.017 9.83794H1.025C1.104 8.50268 1.4755 7.25312 2.0785 6.1581H3.6305C3.278 7.2773 3.063 8.52108 3.017 9.83794ZM4.016 10.8893H8.5V14.5692H4.6745C4.2975 13.4741 4.065 12.2251 4.016 10.8893ZM8.5 15.6205V18.7321C7.1265 18.5024 5.9185 17.3364 5.1005 15.6205H8.5ZM9.5 18.7321V15.6205H12.9C12.0815 17.3364 10.8735 18.5024 9.5 18.7321ZM9.5 14.5692V10.8893H13.9845C13.935 12.2251 13.703 13.4741 13.326 14.5692H9.5ZM14.9835 10.8893H16.9745C16.896 12.2251 16.5245 13.4741 15.921 14.5692H14.369C14.722 13.45 14.937 12.2067 14.9835 10.8893ZM14.9835 9.83794C14.937 8.52108 14.722 7.2773 14.369 6.1581H15.921C16.5245 7.25312 16.896 8.50268 16.9745 9.83794H14.9835ZM15.2395 5.10672H13.988C13.6295 4.26351 13.185 3.52176 12.6785 2.89934C13.673 3.44185 14.5445 4.19569 15.2395 5.10672ZM5.3215 2.89934C4.8145 3.52176 4.37 4.26351 4.0115 5.10672H2.7605C3.4555 4.19569 4.327 3.44238 5.3215 2.89934ZM2.7605 15.6205H4.012C4.37 16.4638 4.8145 17.2055 5.3215 17.8274C4.327 17.2849 3.4555 16.5316 2.7605 15.6205ZM12.6785 17.8274C13.1855 17.205 13.6295 16.4638 13.988 15.6205H15.2395C14.5445 16.5316 13.673 17.2849 12.6785 17.8274Z" fill="black"/>
</svg>
